<?xml version="1.0" standalone="no"?>
<!DOCTYPE svg PUBLIC "-//W3C//DTD SVG 20010904//EN"
 "http://www.w3.org/TR/2001/REC-SVG-20010904/DTD/svg10.dtd">
<svg version="1.0" xmlns="http://www.w3.org/2000/svg"
 width="200.000000pt" height="200.000000pt" viewBox="0 0 200.000000 200.000000"
 preserveAspectRatio="xMidYMid meet">
<metadata>
Created by potrace 1.11, written by Peter Selinger 2001-2013
</metadata>
<g transform="translate(0.000000,200.000000) scale(0.100000,-0.100000)"
fill="#000000" stroke="none">
<path d="M989 1810 c-1 -5 -2 -20 -3 -32 -1 -17 -7 -23 -23 -23 -12 0 -25 -4
-29 -8 -5 -4 -9 -18 -9 -30 0 -17 7 -23 30 -27 24 -4 31 -11 33 -32 3 -22 -3
-29 -30 -43 -71 -34 -93 -112 -55 -188 l23 -43 -36 -17 c-19 -10 -54 -19 -77
-22 -24 -2 -46 -6 -51 -9 -4 -2 -14 -1 -22 4 -7 4 -24 4 -36 0 -14 -6 -26 -5
-29 1 -4 5 -11 6 -17 3 -6 -4 -38 -7 -72 -8 -33 -1 -66 -5 -73 -9 -6 -4 -14
-3 -17 2 -7 11 -109 12 -127 0 -7 -4 -20 -4 -30 1 -11 6 -23 5 -35 -4 -12 -9
-25 -11 -35 -6 -11 7 -23 3 -38 -11 -11 -11 -27 -19 -34 -18 -26 3 -36 -2 -42
-20 -3 -10 -17 -22 -30 -25 -18 -5 -25 -13 -25 -31 0 -15 -6 -25 -14 -25 -15
0 -32 -37 -22 -47 3 -3 0 -15 -6 -27 -10 -19 -12 -74 -5 -137 4 -31 65 -161
81 -171 8 -5 8 -13 0 -25 -13 -23 -7 -53 12 -53 8 0 14 -4 14 -10 0 -5 6 -10
13 -10 15 0 39 -26 77 -83 14 -20 28 -37 32 -37 18 0 79 -123 83 -169 2 -19 8
-37 13 -40 10 -7 26 -43 23 -55 -1 -4 1 -17 5 -28 6 -19 12 -20 99 -14 50 3
114 8 141 11 184 22 453 25 771 11 90 -4 172 -5 183 -1 13 4 20 15 20 31 0 14
7 35 15 47 8 12 17 40 21 62 3 22 10 42 15 43 5 2 9 13 9 24 0 26 35 75 59 83
18 5 45 58 35 68 -4 4 73 77 91 87 6 3 10 16 10 30 0 14 14 53 31 85 34 65 44
100 49 174 3 51 -15 138 -31 149 -5 4 -15 19 -21 35 -7 15 -18 27 -24 27 -7 0
-22 12 -35 26 -13 14 -29 22 -34 19 -6 -3 -18 1 -27 10 -10 10 -24 14 -39 11
-12 -3 -26 -1 -30 5 -3 6 -19 9 -35 5 -15 -3 -31 -1 -34 4 -6 11 -33 9 -52 -3
-6 -4 -14 -3 -18 3 -8 14 -42 13 -47 -1 -3 -9 -10 -9 -26 0 -15 8 -28 9 -41 2
-10 -6 -21 -7 -25 -4 -3 3 -44 7 -91 8 -47 1 -88 4 -91 8 -3 3 -12 3 -19 1
-17 -7 -85 12 -107 30 -16 12 -16 15 2 52 40 77 16 155 -57 193 -16 8 -23 21
-23 40 0 24 5 30 31 35 26 5 30 10 27 33 -2 22 -8 28 -28 28 -19 0 -26 6 -29
25 -1 14 -8 28 -15 32 -16 11 -46 10 -47 -2z m-92 -582 c0 -24 4 -79 8 -123
l7 -81 -43 -2 c-60 -3 -171 -21 -243 -38 -32 -9 -60 -13 -63 -11 -8 8 -33 111
-33 135 0 36 36 79 78 93 33 11 252 65 277 68 6 0 11 -18 12 -41z m363 21 c30
-4 73 -11 95 -14 74 -11 120 -27 152 -51 30 -23 32 -28 28 -77 -2 -28 -10 -70
-18 -92 -15 -41 -23 -45 -74 -31 -45 12 -79 19 -150 31 -16 2 -51 5 -79 7
l-51 3 1 95 c0 52 -3 108 -7 124 -8 27 -7 28 20 21 15 -4 53 -11 83 -16z
m-870 -6 c-105 -74 -123 -199 -49 -345 18 -36 18 -39 2 -93 -18 -53 -34 -68
-50 -42 -4 6 -17 17 -28 23 -25 14 -89 118 -109 178 -9 26 -16 73 -16 105 0
50 5 66 33 107 29 45 37 50 95 65 34 8 82 16 105 17 l42 3 -25 -18z m1380 -8
c122 -63 106 -279 -29 -424 -28 -30 -56 -37 -56 -15 0 5 -4 14 -8 21 -4 6 6
38 23 72 42 82 59 143 54 197 -5 59 -29 100 -83 142 l-43 32 57 -5 c32 -3 70
-12 85 -20z"/>
</g>
</svg>
